<?xml version="1.0" standalone="no"?>
<svg xmlns:xlink="http://www.w3.org/1999/xlink" id="wave" style="transform:rotate(0deg); transition: 0.3s" viewBox="0 0 1440 490" version="1.1" xmlns="http://www.w3.org/2000/svg"><defs><linearGradient id="sw-gradient-0" x1="0" x2="0" y1="1" y2="0"><stop stop-color="rgba(11.288, 56.637, 189.293, 1)" offset="0%"/><stop stop-color="rgba(59.879, 62.264, 75.454, 1)" offset="100%"/></linearGradient></defs><path style="transform:translate(0, 0px); opacity:1" fill="url(#sw-gradient-0)" d="M0,392L80,367.5C160,343,320,294,480,302.2C640,310,800,376,960,383.8C1120,392,1280,343,1440,343C1600,343,1760,392,1920,351.2C2080,310,2240,180,2400,122.5C2560,65,2720,82,2880,98C3040,114,3200,131,3360,114.3C3520,98,3680,49,3840,65.3C4000,82,4160,163,4320,212.3C4480,261,4640,278,4800,245C4960,212,5120,131,5280,155.2C5440,180,5600,310,5760,359.3C5920,408,6080,376,6240,302.2C6400,229,6560,114,6720,89.8C6880,65,7040,131,7200,138.8C7360,147,7520,98,7680,81.7C7840,65,8000,82,8160,130.7C8320,180,8480,261,8640,269.5C8800,278,8960,212,9120,187.8C9280,163,9440,180,9600,220.5C9760,261,9920,327,10080,343C10240,359,10400,327,10560,326.7C10720,327,10880,359,11040,310.3C11200,261,11360,131,11440,65.3L11520,0L11520,490L11440,490C11360,490,11200,490,11040,490C10880,490,10720,490,10560,490C10400,490,10240,490,10080,490C9920,490,9760,490,9600,490C9440,490,9280,490,9120,490C8960,490,8800,490,8640,490C8480,490,8320,490,8160,490C8000,490,7840,490,7680,490C7520,490,7360,490,7200,490C7040,490,6880,490,6720,490C6560,490,6400,490,6240,490C6080,490,5920,490,5760,490C5600,490,5440,490,5280,490C5120,490,4960,490,4800,490C4640,490,4480,490,4320,490C4160,490,4000,490,3840,490C3680,490,3520,490,3360,490C3200,490,3040,490,2880,490C2720,490,2560,490,2400,490C2240,490,2080,490,1920,490C1760,490,1600,490,1440,490C1280,490,1120,490,960,490C800,490,640,490,480,490C320,490,160,490,80,490L0,490Z"/></svg>