<?xml version="1.0" standalone="no"?>
<svg xmlns:xlink="http://www.w3.org/1999/xlink" id="wave" style="transform:rotate(180deg); transition: 0.3s" viewBox="0 0 1440 280" version="1.1" xmlns="http://www.w3.org/2000/svg"><defs><linearGradient id="sw-gradient-0" x1="0" x2="0" y1="1" y2="0"><stop stop-color="rgba(11.288, 56.637, 189.293, 1)" offset="0%"/><stop stop-color="rgba(90.628, 93.185, 107.329, 1)" offset="100%"/></linearGradient></defs><path style="transform:translate(0, 0px); opacity:1" fill="url(#sw-gradient-0)" d="M0,224L40,224C80,224,160,224,240,191.3C320,159,400,93,480,93.3C560,93,640,159,720,177.3C800,196,880,168,960,144.7C1040,121,1120,103,1200,107.3C1280,112,1360,140,1440,140C1520,140,1600,112,1680,93.3C1760,75,1840,65,1920,51.3C2000,37,2080,19,2160,46.7C2240,75,2320,149,2400,182C2480,215,2560,205,2640,168C2720,131,2800,65,2880,60.7C2960,56,3040,112,3120,130.7C3200,149,3280,131,3360,126C3440,121,3520,131,3600,112C3680,93,3760,47,3840,32.7C3920,19,4000,37,4080,46.7C4160,56,4240,56,4320,60.7C4400,65,4480,75,4560,70C4640,65,4720,47,4800,42C4880,37,4960,47,5040,60.7C5120,75,5200,93,5280,102.7C5360,112,5440,112,5520,135.3C5600,159,5680,205,5720,228.7L5760,252L5760,280L5720,280C5680,280,5600,280,5520,280C5440,280,5360,280,5280,280C5200,280,5120,280,5040,280C4960,280,4880,280,4800,280C4720,280,4640,280,4560,280C4480,280,4400,280,4320,280C4240,280,4160,280,4080,280C4000,280,3920,280,3840,280C3760,280,3680,280,3600,280C3520,280,3440,280,3360,280C3280,280,3200,280,3120,280C3040,280,2960,280,2880,280C2800,280,2720,280,2640,280C2560,280,2480,280,2400,280C2320,280,2240,280,2160,280C2080,280,2000,280,1920,280C1840,280,1760,280,1680,280C1600,280,1520,280,1440,280C1360,280,1280,280,1200,280C1120,280,1040,280,960,280C880,280,800,280,720,280C640,280,560,280,480,280C400,280,320,280,240,280C160,280,80,280,40,280L0,280Z"/></svg>